# xmcd
# Track frame offsets:
# 150
# 2185
# 18225
# 38550
# 61050
# 83775
# 93825
# 111150
# 128625
# 143025
# 161700
# 177300
# 193650
# 218335
# 236925
# 255525
# 269185
# 286500
# 302435
# 316925
#
# Disc length: 4439 seconds
# Revision: 0
# Processed by: cddbd v1.4PL0 Copyright (c) Steve Scherf et al.
# Submitted via: VisiTrax 2.9.5.181 - For more info visit www.synapsa.com
#
DISCID=06115514
DTITLE=Varius Artists - All that blues from Norway
DYEAR=1996
DGENRE=Blues
TTITLE0=Totto Nilsen - Skrik
TTITLE1=The R&B Express - Got my eyes on you
TTITLE2=Knut Reiersrud - God don´t never change
TTITLE3=Jörn Hoel - Mojo Guru
TTITLE4=Marianne Antonsen - Someday
TTITLE5=Tiger City Jukes - I Don´t love you
TTITLE6=Reidar Larsen and the Boogie Basterds - Hole in the wall
TTITLE7=Daryl McDade and Omatima Rhythm - I´t´s hard out there
TTITLE8=Berge/Flaaten Bluesband - Is it love?
TTITLE9=Earl Wilson - I´m proud and strong
TTITLE10=Peer Gynt - Dokter
TTITLE11=Hard Luck Blues Band - Hot time in the old town tonight
TTITLE12=Good Time Charlie - Homesick
TTITLE13=Stokkan - Steal me away
TTITLE14=Spoonful of Blues - Walking blues
TTITLE15=TI.s Blue Master - In the barn
TTITLE16=Larsen´s last chance - Blues for red
TTITLE17=Notodden Blues Band - Trives best aleine
TTITLE18=Erik Moll - In the shadow of a little white lie
TTITLE19=Mulens Portland Combo - Ain´t that I don´t love you
EXTD=
EXTT0=
EXTT1=The R&B Express
EXTT2=Knut Reiersrud
EXTT3=Jörn Hoel
EXTT4=
EXTT5=
EXTT6=
EXTT7=
EXTT8=
EXTT9=
EXTT10=
EXTT11=
EXTT12=
EXTT13=
EXTT14=
EXTT15=
EXTT16=
EXTT17=
EXTT18=
EXTT19=
PLAYORDER=
